HIERARCHY
ROOT Hips
{
	OFFSET -14.64140 90.27770 -84.91600
	CHANNELS 6 Xposition Yposition Zposition Zrotation Xrotation Yrotation
	JOINT Spine
	{
		OFFSET 0.00000 13.20850 -1.60436
		CHANNELS 3 Zrotation Xrotation Yrotation
		JOINT Spine1
		{
			OFFSET 0.00000 8.61716 0.00000
			CHANNELS 3 Zrotation Xrotation Yrotation
			JOINT Spine2
			{
				OFFSET 0.00000 8.61717 0.00000
				CHANNELS 3 Zrotation Xrotation Yrotation
				JOINT Spine3
				{
					OFFSET 0.00000 8.61717 0.00000
					CHANNELS 3 Zrotation Xrotation Yrotation
					JOINT Neck
					{
						OFFSET 0.00000 11.07920 1.10792
						CHANNELS 3 Zrotation Xrotation Yrotation
						JOINT Neck1
						{
							OFFSET 0.00000 7.08032 0.00000
							CHANNELS 3 Zrotation Xrotation Yrotation
							JOINT Head
							{
								OFFSET 0.00000 7.08031 0.00000
								CHANNELS 3 Zrotation Xrotation Yrotation
								End site
								{
									OFFSET 0.00000 0.00000 0.00000
								}
							}
						}
					}
					JOINT RightShoulder
					{
						OFFSET -0.01000 7.91373 5.19711
						CHANNELS 3 Zrotation Xrotation Yrotation
						JOINT RightArm
						{
							OFFSET -18.41580 0.00000 0.00000
							CHANNELS 3 Zrotation Xrotation Yrotation
							JOINT RightForeArm
							{
								OFFSET -29.11090 0.00000 0.00000
								CHANNELS 3 Zrotation Xrotation Yrotation
								JOINT RightHand
								{
									OFFSET -24.65040 0.00000 0.00000
									CHANNELS 3 Zrotation Xrotation Yrotation
									JOINT RightHandThumb1
									{
										OFFSET -5.35114 -0.85590 3.97906
										CHANNELS 3 Zrotation Xrotation Yrotation
										JOINT RightHandThumb2
										{
											OFFSET -4.52789 0.00000 0.00000
											CHANNELS 3 Zrotation Xrotation Yrotation
											JOINT RightHandThumb3
											{
												OFFSET -2.46976 0.00000 0.00000
												CHANNELS 3 Zrotation Xrotation Yrotation
												End site
												{
													OFFSET 0.00000 0.00000 0.00000
												}
											}
										}
									}
									JOINT RightHandIndex1
									{
										OFFSET -14.26970 0.00000 2.88139
										CHANNELS 3 Zrotation Xrotation Yrotation
										JOINT RightHandIndex2
										{
											OFFSET -5.48836 0.00000 0.00000
											CHANNELS 3 Zrotation Xrotation Yrotation
											JOINT RightHandIndex3
											{
												OFFSET -3.01859 0.00000 0.00000
												CHANNELS 3 Zrotation Xrotation Yrotation
												End site
												{
													OFFSET 0.00000 0.00000 0.00000
												}
											}
										}
									}
									JOINT RightHandMiddle1
									{
										OFFSET -14.26970 0.00000 -0.09147
										CHANNELS 3 Zrotation Xrotation Yrotation
										JOINT RightHandMiddle2
										{
											OFFSET -6.17441 0.00000 0.00000
											CHANNELS 3 Zrotation Xrotation Yrotation
											JOINT RightHandMiddle3
											{
												OFFSET -3.56743 0.00000 0.00000
												CHANNELS 3 Zrotation Xrotation Yrotation
												End site
												{
													OFFSET 0.00000 0.00000 0.00000
												}
											}
										}
									}
									JOINT RightHandRing1
									{
										OFFSET -12.69180 0.00000 -3.06433
										CHANNELS 3 Zrotation Xrotation Yrotation
										JOINT RightHandRing2
										{
											OFFSET -5.62556 0.00000 0.00000
											CHANNELS 3 Zrotation Xrotation Yrotation
											JOINT RightHandRing3
											{
												OFFSET -3.56744 0.00000 0.00000
												CHANNELS 3 Zrotation Xrotation Yrotation
												End site
												{
													OFFSET 0.00000 0.00000 0.00000
												}
											}
										}
									}
									JOINT RightHandPinky1
									{
										OFFSET -11.11390 0.00000 -6.03719
										CHANNELS 3 Zrotation Xrotation Yrotation
										JOINT RightHandPinky2
										{
											OFFSET -4.52789 0.00000 0.00000
											CHANNELS 3 Zrotation Xrotation Yrotation
											JOINT RightHandPinky3
											{
												OFFSET -2.46976 0.00000 0.00000
												CHANNELS 3 Zrotation Xrotation Yrotation
												End site
												{
													OFFSET 0.00000 0.00000 0.00000
												}
											}
										}
									}
								}
							}
						}
					}
					JOINT LeftShoulder
					{
						OFFSET 0.01000 7.91373 5.19711
						CHANNELS 3 Zrotation Xrotation Yrotation
						JOINT LeftArm
						{
							OFFSET 18.41580 0.00000 0.00000
							CHANNELS 3 Zrotation Xrotation Yrotation
							JOINT LeftForeArm
							{
								OFFSET 29.11090 0.00000 0.00000
								CHANNELS 3 Zrotation Xrotation Yrotation
								JOINT LeftHand
								{
									OFFSET 24.65040 0.00000 0.00000
									CHANNELS 3 Zrotation Xrotation Yrotation
									JOINT LeftHandThumb1
									{
										OFFSET 5.35114 -0.85590 3.97906
										CHANNELS 3 Zrotation Xrotation Yrotation
										JOINT LeftHandThumb2
										{
											OFFSET 4.52789 0.00000 0.00000
											CHANNELS 3 Zrotation Xrotation Yrotation
											JOINT LeftHandThumb3
											{
												OFFSET 2.46977 0.00000 0.00000
												CHANNELS 3 Zrotation Xrotation Yrotation
												End site
												{
													OFFSET 0.00000 0.00000 0.00000
												}
											}
										}
									}
									JOINT LeftHandIndex1
									{
										OFFSET 14.26970 0.00000 2.88139
										CHANNELS 3 Zrotation Xrotation Yrotation
										JOINT LeftHandIndex2
										{
											OFFSET 5.48836 0.00000 0.00000
											CHANNELS 3 Zrotation Xrotation Yrotation
											JOINT LeftHandIndex3
											{
												OFFSET 3.01859 0.00000 0.00000
												CHANNELS 3 Zrotation Xrotation Yrotation
												End site
												{
													OFFSET 0.00000 0.00000 0.00000
												}
											}
										}
									}
									JOINT LeftHandMiddle1
									{
										OFFSET 14.26970 0.00000 -0.09147
										CHANNELS 3 Zrotation Xrotation Yrotation
										JOINT LeftHandMiddle2
										{
											OFFSET 6.17440 0.00000 0.00000
											CHANNELS 3 Zrotation Xrotation Yrotation
											JOINT LeftHandMiddle3
											{
												OFFSET 3.56744 0.00000 0.00000
												CHANNELS 3 Zrotation Xrotation Yrotation
												End site
												{
													OFFSET 0.00000 0.00000 0.00000
												}
											}
										}
									}
									JOINT LeftHandRing1
									{
										OFFSET 12.69180 0.00000 -3.06433
										CHANNELS 3 Zrotation Xrotation Yrotation
										JOINT LeftHandRing2
										{
											OFFSET 5.62556 0.00000 0.00000
											CHANNELS 3 Zrotation Xrotation Yrotation
											JOINT LeftHandRing3
											{
												OFFSET 3.56744 0.00000 0.00000
												CHANNELS 3 Zrotation Xrotation Yrotation
												End site
												{
													OFFSET 0.00000 0.00000 0.00000
												}
											}
										}
									}
									JOINT LeftHandPinky1
									{
										OFFSET 11.11390 0.00000 -6.03719
										CHANNELS 3 Zrotation Xrotation Yrotation
										JOINT LeftHandPinky2
										{
											OFFSET 4.52789 0.00000 0.00000
											CHANNELS 3 Zrotation Xrotation Yrotation
											JOINT LeftHandPinky3
											{
												OFFSET 2.46976 0.00000 0.00000
												CHANNELS 3 Zrotation Xrotation Yrotation
												End site
												{
													OFFSET 0.00000 0.00000 0.00000
												}
											}
										}
									}
								}
							}
						}
					}
					JOINT pCube4
					{
						OFFSET 0.00000 10.91090 1.10792
						CHANNELS 3 Zrotation Xrotation Yrotation
						End site
						{
							OFFSET 0.00000 0.00000 0.00000
						}
					}
				}
			}
		}
	}
	JOINT RightUpLeg
	{
		OFFSET -9.98441 0.00000 0.00000
		CHANNELS 3 Zrotation Xrotation Yrotation
		JOINT RightLeg
		{
			OFFSET 0.00000 -42.11790 0.00000
			CHANNELS 3 Zrotation Xrotation Yrotation
			JOINT RightFoot
			{
				OFFSET 0.00000 -45.00020 -0.00001
				CHANNELS 3 Zrotation Xrotation Yrotation
				JOINT RightForeFoot
				{
					OFFSET 0.00000 -3.74820 0.00000
					CHANNELS 3 Zrotation Xrotation Yrotation
					JOINT RightToeBase
					{
						OFFSET 0.00000 0.06325 14.43120
						CHANNELS 3 Zrotation Xrotation Yrotation
						End site
						{
							OFFSET 0.00000 0.00000 0.00000
						}
					}
				}
			}
		}
	}
	JOINT LeftUpLeg
	{
		OFFSET 9.98441 0.00000 0.00000
		CHANNELS 3 Zrotation Xrotation Yrotation
		JOINT LeftLeg
		{
			OFFSET 0.00000 -42.11800 0.00000
			CHANNELS 3 Zrotation Xrotation Yrotation
			JOINT LeftFoot
			{
				OFFSET 0.00000 -45.00070 0.00000
				CHANNELS 3 Zrotation Xrotation Yrotation
				JOINT LeftForeFoot
				{
					OFFSET 0.00000 -3.74824 0.00000
					CHANNELS 3 Zrotation Xrotation Yrotation
					JOINT LeftToeBase
					{
						OFFSET 0.00000 0.06325 14.43110
						CHANNELS 3 Zrotation Xrotation Yrotation
						End site
						{
							OFFSET 0.00000 0.00000 0.00000
						}
					}
				}
			}
		}
	}
}
MOTION
Frames: 4
Frame Time: 0.050000
-0.007742681942179502 -0.017532437664333413 -0.0067005428472064745 0.010466303826122035 -0.022881996930390183 0.006279344470459941 -2.4437269147604375 -0.5495527237950046 -0.855502943417263 -0.9154816593698073 3.6951740768843204 0.35225083961480436 -1.1250052999629054 -2.091038116838095 -0.4629513662898044 -0.2793273794856729 0.2271286156700046 -0.7248909536780365 -0.22748201366704407 13.928649628381425 1.0691830423949058 0.2843279190342729 1.246488190029208 0.9346016591277777 -0.02647861327531198 -12.874161444013005 0.13078745445220602 -4.786418021376062 1.78002197916336 -15.141239360796458 70.54637174016074 18.648989613632157 10.455276072019872 9.980447509022936 2.9342488232493458 104.70774550282299 15.467895823268334 -0.4957348930970322 -4.286064490470271 4.510063182728544 -0.11787091515064091 -1.6080670503098473 -0.01588135048156463 -0.049372869307435854 -56.23518612647844 -0.03592480126378305 -0.0317915901704263 -56.22593584302611 -38.79018614364926 0.02057188076677112 0.012197530680327674 -0.03688167538209216 -0.009067139180153314 -0.03508704818024451 -0.020723017744071905 0.01521693476603828 0.002917331298181873 -36.68026341099391 0.042978843846557084 -0.04410448894842552 -0.007079884158677725 0.001338901697845801 0.006220451106633255 0.0017918965537344603 0.019540665382234534 -0.018204570860108113 -19.740768924042968 0.0064274131869474825 0.007985289956052414 0.0485288648663726 0.023942569128347028 -0.0009197753298627541 0.002203520717184801 0.03239748389751033 -0.013587426913315097 24.102084324468798 -0.03063434239166363 0.04102751988357107 28.8301021173298 0.0130792977098959 0.02470977736564628 28.882967113066556 -0.045520825999228236 -0.04521393322533518 6.962392310765122 1.562043201117577 14.160710024404555 -69.8141096551678 27.222835493650965 -9.98716378974688 -1.8990089907001189 -2.9186416219350706 -103.07720390510592 -10.231720231272048 -7.803460253419534 4.009002909884126 -0.48566292938515604 0.026132996937743742 -8.114955165905045 -0.01679266660372226 -0.02538200374195219 44.544289556315334 -0.004317162189653003 -0.02888327941087042 44.598823054327234 12.462040950055854 0.03338729930294807 -0.0075866394168047704 0.021068194598982664 0.001141749673518148 -0.008550161081446784 0.021450996598682378 0.005398171065091326 -0.03340527922772117 11.11497287863517 -0.010975947533397071 -0.02155205298811774 -0.02513139134638558 0.04836346679723508 -0.008157772956568736 0.00991595471425764 0.025195824373100268 0.000391510841584342 4.729711271198031 -0.03227927401055912 -0.04218593825572104 -0.029728895515949826 0.044000227682105215 -0.005905665532199376 -0.039269927706485644 -0.029844022676764254 0.035765446612507114 -5.626270412193636 -0.041507550011675776 0.0034354159630258464 -6.706556791008773 0.02694123089875079 0.010150785720585382 -6.7684708518406715 -0.005408255240834711 0.025892171258960844 0.032187571518111024 0.037065571031465634 -0.04465078637204839 8.055661522075582 3.4829951626006244 -19.24698197171396 0.03590299586437535 10.365720522362976 0.0016785356273461647 -5.57240439507823 -15.626786232292524 3.1717196097352116 0.025370137183411395 -0.04372156230295112 -0.027718340479307664 0.012345579639811914 4.663245767854154 -0.029283307610622714 12.437489873886504 -8.26685935146706 6.841553916936729 -0.012385435713100197 46.34196024036953 -0.040987213476759495 -4.323801542147052 -14.703459078715417 -3.8657221544541014 -0.029267973613056674 -0.03113814192693547 -0.0025229722656831405 0.04916499596133737 -10.695746490407869 -0.03710285800871311 
0.04774703496292856 0.029754903723066668 -0.012405335318734296 -0.027229576407432277 -0.007123898880852128 0.0009669701829104988 -2.4148400542791704 -0.4262464535202616 -0.8589307224034693 -0.9455392020213157 3.641787748857632 0.413682900992383 -1.2009917207112693 -2.0175026563765432 -0.49021187608439915 -0.21656593768314825 0.24477454121915643 -0.6990146321961198 -0.253037811316397 13.827007461527753 1.1108259941708036 0.25282897224584744 1.1203717916325981 1.0351555169683933 -0.06175944257049476 -13.005444766641682 0.1107432358686836 -4.481004783024268 1.7343383784027593 -15.115443497567506 70.54941422422746 19.614049599331437 10.098222876357811 10.146730645737916 2.719730393353668 104.58483633652601 15.610431599742464 -0.4774951667137222 -4.324454378966641 4.4871268021702555 -0.07849941852146114 -1.596457038640019 0.028713039534010516 -0.033522035929248045 -56.24506338834711 0.022848169892124397 -0.047249260194673535 -56.22687110337346 -38.75378157377288 0.03256446032608374 -0.007524072468443813 0.039398372462912674 -0.011668473455671017 -0.03972714515442647 0.005745690297061249 -0.003862659896397926 0.005935887162206835 -36.68797785194329 0.014256360570780627 0.028411223373111874 0.009451755957284163 0.008803357629235783 -0.001269651237798174 -0.021472666149359325 0.03342450756699481 -0.0006140459571684368 -19.782806853168776 -0.004744117992701951 -0.02411501252323995 0.04722174881789727 -0.021861346062837527 0.014416665507744866 0.005050967782087637 0.013750064797534605 0.008201294032275463 24.094342918698636 -0.03437325498044079 -0.006984056683018701 28.906109142848813 0.010400898349419674 -0.025072152667601773 28.89121409534327 -0.03565391182318705 0.0027675335559162236 6.781755221338251 1.5530930534187675 14.093515714391188 -69.764641612324 27.869477225135096 -9.894794494629261 -3.3050155874868627 -2.378752881756737 -102.11605302865671 -10.794017617657865 -7.809950735050544 4.250661257629019 -0.5038008330805825 0.06801384377321475 -8.130666430312836 0.011595944149282415 -0.03439035480503982 44.597864992947656 -0.038789592844603316 -0.0011108768316188888 44.55241817147691 12.457407031009504 0.012730510577384384 0.04246291654873205 0.0383287238073762 -0.020512834728161095 0.024545557905006597 -0.015809573379078044 0.03943121542146897 0.005466188193508124 11.116742946110678 0.009782438356205684 0.02797233343155744 0.04976109247861178 -0.005387720443385022 0.006110841760263404 -0.037729835054092664 0.000481181322629773 0.01687589396351247 4.811709844480583 -0.03617415893220004 0.033083232834816546 -0.04261836482054661 -0.00189842448014103 -0.04172162746863077 -0.021536699350588346 -0.021180060578056856 0.04993094845526608 -5.574191980759043 0.02670775069730048 0.009480206115911542 -6.72479902334506 -0.023384594472537417 0.037951693851397315 -6.677787064014231 0.029793554158036504 -0.029514941162962674 0.033692860133582817 0.03862640631314569 0.01558190903114262 8.06798280173965 3.489366647364788 -19.211539089029866 0.045043718689072094 10.430994396537397 0.05585758017357355 -5.599749869446732 -15.661563870859844 3.1610542491244766 0.007864883015984198 -0.039286109394052054 -0.004676087513999533 -0.008861813305601995 4.725865579063434 -0.014614620733867396 12.431276843191146 -8.265796395484118 6.8806783550767285 0.016889657485189342 46.34842277653341 0.04684386208271335 -4.2861533284033 -14.77529803919327 -3.8549357510318516 0.025745943480617536 -0.04269123444588701 0.012612701418631682 -0.0025430962862042733 -10.701656655336778 -0.0042477762938528405 
-0.03859017899401071 0.01746982966010666 -0.049947410729858754 -0.01664128553543688 0.0011468013815041918 -0.04317547495378116 -2.3300911964474786 -0.32040412866508594 -0.8634573712489626 -1.000968330209851 3.6284583234895753 0.4000235638369852 -1.1420299558467948 -2.0228240112687295 -0.48427461274452954 -0.216723949381224 0.28894779164408635 -0.7568599510913276 -0.31250450220425535 13.685160685724492 1.0914567602997813 0.17693203307884242 1.0711348199874178 1.0217224268414216 -0.06182174962904534 -13.217999316901732 0.14511217593295153 -4.391640014239601 1.700547304062261 -15.12808451512126 70.7841939275512 19.61591336657873 10.20776166803635 10.96684242289171 2.6897599195723045 104.36341566950983 15.59712660689239 -0.46564018682588576 -4.266212010642946 4.575341937090491 -0.11061210949568007 -1.6252923498090062 -0.0036648541002187 0.0007237912332236769 -56.19892417877867 -0.0008248150696739541 0.004582118530916915 -56.23598922843115 -38.73362587054337 -0.023000529413173827 0.005768435860581768 -0.011874039668573763 -0.02048205002462467 0.02800033731176701 0.037223518420925326 0.020066142207370432 -0.03896789795447359 -36.691577584589886 -0.042689193379603786 -0.02346668793864919 0.03723082990559499 0.007304311467769881 0.00019980359216356446 -0.028592628067209906 0.018076729642587414 -0.018386083849876896 -19.76690407109098 0.016607829227531064 -0.016566386130304117 0.028191858037077404 0.004236855893468061 -0.005015968934547424 -0.023894801909240967 0.03505932810540101 -0.014735425490560498 24.0318824419341 0.01769822688618591 -0.009704779050512556 28.85695449706218 -0.04353521841827389 -0.006679214065755384 28.86091140348108 -0.01698669072530959 0.024975698440411802 6.6272118093200545 1.49721280662692 14.096481364371774 -69.74064651562186 27.96114388044326 -9.965278452830589 -4.970511058306815 -1.8074884688155886 -101.44927056750703 -11.040373524248894 -7.647523908217069 4.252811418416489 -0.46106803921982237 0.0445105728602785 -8.117414301542585 0.017855451663128886 0.012271013384505354 44.59805854177871 -0.019413182169743883 -0.016527437782506284 44.56751154516017 12.422031414621248 -0.007889704303773783 -0.027175993204717443 -0.03065684843273214 -0.03547674304186116 0.0072176698292951225 0.015542417895867367 0.01440817812299127 -0.02650179582673081 11.150167567112023 -0.0018228288133501109 0.042048030101768476 -0.03213060406024004 0.003809765550548862 0.048365024730828765 0.003154867316006193 -0.03152111255302566 7.033056710399058e-05 4.7565985056877285 -0.013267127785347084 0.03356761070127157 -0.013741323147910212 0.027816997835883844 0.012521954762734369 -0.002832374088760165 -0.008038213402151217 -0.03243507399087253 -5.5667331474709165 -0.03697725639310163 -0.03986923119865381 -6.75280054961697 -0.005159116074092807 -0.04789525447697185 -6.67986575121696 -0.04571313241226131 -0.04158516855699545 0.011289664254001956 0.019088502920012337 0.0078842758745209 8.033058063739 3.5385529900719646 -19.21364993541899 0.025517151427458588 10.394673991415708 0.002916818892746923 -5.6557175570330465 -15.651246986890222 3.1440213620184125 -0.0369694578907412 -0.0162794908939796 -0.02754543131146526 -0.03385966402265017 4.679408602084758 -0.010241440562758655 12.45163854748961 -8.204058087881338 6.903923305282385 -0.01741113490562413 46.35856397766664 0.001027001430081756 -4.339658973358574 -14.737516052217318 -3.8683433611354228 -0.000932656362947523 0.04312762402900783 0.032582004004923 0.002055717336051608 -10.707896264038617 -0.008904269745016295 
-0.03955110725643062 0.02444380480672121 -0.007540171559871906 0.020884504909541593 -0.033404824652185514 -0.01577903126858462 -2.2842731828351117 -0.18260760185277028 -0.8430197149159575 -0.9227526173205665 3.6695249576144886 0.42418318334451277 -1.1776230610260314 -1.9332579762070927 -0.4897649578726061 -0.17364463696763838 0.2331363089571096 -0.7279608180466303 -0.3468675524464394 13.61820170661373 1.1422561979516956 0.22662738861901574 0.9668385495659816 1.0789698200256252 -0.057581471022685494 -13.28576494208489 0.13613243409624273 -4.274915100849855 1.6975359095467977 -15.056060938935037 70.80199288435979 19.29729993849515 10.243184231615286 12.089632290630632 2.7171726134727887 103.58168411651724 15.433162391051999 -0.42497560406137774 -4.211428502686021 4.486565855146169 -0.14330761378121828 -1.586870670232099 -0.021861446833494783 0.0038161138946975867 -56.2420411934479 -0.024822959627120434 -0.01644244143440186 -56.2448612897095 -38.7493464504205 -0.036646893115539404 0.022500162222978005 -0.03533222169994061 0.03693816382392093 0.04421922190799583 -0.0146896049850832 -0.0022477762272385305 0.037504328882164484 -36.7020284235208 -0.034681195906819874 0.017094997692961383 0.007052248720081427 0.031114429585439828 0.0011025285900184963 0.043882718217579685 -0.02348681932355078 0.00012067417318069972 -19.708699341610625 0.03342172385949643 -0.021721474982519303 0.007305166040568833 0.034182765229556614 -0.036735031380957635 0.0036642675787296078 -0.047235346141692745 0.03125684247266159 24.05040463770972 -0.021957199914111276 -0.023259194527631328 28.904334044888955 -0.02590400566369982 0.028161344744626716 28.897539355648288 0.04490223303903809 0.047125949669570545 6.548776627486148 1.5025522942380847 13.993533451315797 -69.76181105228848 27.74418359559125 -10.386770635394612 -6.578841863884356 -1.4554640300024078 -100.60281792670567 -10.910944388314315 -7.216044627146672 4.096831405065327 -0.46775817392991254 0.02415719852027713 -8.087704581994856 -0.015248804253527282 -0.011690164526725888 44.57524518221148 0.018539047589970374 -0.041079734824322006 44.55453764248125 12.437937228997564 -0.019353927854652744 0.03770314473644766 -0.01780644331550145 0.0463377247972522 0.017784352621691316 -0.007434379847444468 0.020730918138108977 0.008194382703362013 11.072485069542587 -0.04606735040493594 -0.04807951032144498 -0.03923547689870785 -0.027635325440831696 0.01324399359883407 -0.024407112232999902 0.0021372287167532866 -0.02413096881235093 4.733135187333149 0.006753653663508384 -0.03856266840919837 -0.0381385521838605 -0.023393832215014433 -0.010863697756121747 0.03444306053538925 -0.0073624828214675754 0.00040716801714989925 -5.6021646088678265 0.017790945299237488 0.02269627404800057 -6.722821375509317 0.04488423452578591 -0.017140171633771517 -6.697855979699543 -0.029357885821965798 0.03671302473990252 0.0007020273131723518 0.04994437725092701 -0.027332731744951603 8.018577610605707 3.5246308630881966 -19.17302501861965 -0.04580002957103548 10.392396612901788 -0.020973291007245484 -5.667718999875417 -15.628500262606645 3.2045565075264233 -6.192241977162762e-05 0.0008383361215212578 0.01620101908657282 0.01818606691456682 4.667407997061534 0.04643197604052179 12.421690120193643 -8.221882777937843 6.912930564302364 -0.009621770455945523 46.38711925383102 0.014271881256399341 -4.344660478341051 -14.742286473184313 -3.852830268586226 -0.03172737289163261 0.018388923427014515 0.02134168090255647 -0.029337277151892705 -10.7598527544619 0.036991623822086414 
